<?xml version="1.0" standalone="no"?>
<!DOCTYPE svg PUBLIC "-//W3C//DTD SVG 20010904//EN"
 "http://www.w3.org/TR/2001/REC-SVG-20010904/DTD/svg10.dtd">
<svg version="1.0" xmlns="http://www.w3.org/2000/svg"
 width="176.000000pt" height="180.000000pt" viewBox="0 0 176.000000 180.000000"
 preserveAspectRatio="xMidYMid meet">

<g transform="translate(0.000000,180.000000) scale(0.100000,-0.100000)"
fill="#168dbd" stroke="none">
<path d="M312 1625 l3 -74 -90 -3 -90 -3 -2 -167 -2 -167 85 -67 c46 -37 84
-71 84 -76 0 -7 -94 -123 -230 -285 l-19 -22 50 -3 51 -3 1 -145 2 -145 83 -2
c66 -1 88 -6 112 -23 16 -12 35 -18 40 -15 6 4 9 2 8 -3 -4 -11 35 -43 121
-103 83 -57 98 -68 239 -170 l118 -86 31 21 c16 12 41 29 54 38 13 10 62 45
109 78 47 34 96 70 110 81 14 10 76 55 138 99 l113 80 84 0 85 0 0 149 0 150
49 3 48 3 -123 150 c-68 82 -124 152 -123 155 0 3 37 34 82 70 l82 66 3 172
c1 95 -1 172 -5 171 -5 -1 -43 -1 -85 0 l-78 1 0 75 0 75 -571 0 -571 0 4 -75z
m1100 -13 c-2 -23 -1 -56 3 -72 l7 -30 79 0 79 0 1 -27 c0 -16 0 -80 0 -143
l0 -114 -85 -69 c-48 -38 -86 -76 -86 -85 0 -16 69 -106 161 -210 46 -53 48
-62 14 -62 l-26 0 2 -147 1 -148 -71 -3 -71 -3 -168 -121 c-294 -214 -374
-268 -386 -261 -6 4 -36 25 -66 47 -30 23 -98 71 -150 108 -107 75 -127 90
-184 133 -121 91 -130 95 -205 95 l-71 0 0 150 0 150 -25 0 c-32 0 -31 5 3 44
15 18 43 52 63 77 20 24 55 66 78 94 42 50 53 82 27 72 -9 -4 -13 -1 -11 6 2
7 -31 39 -73 72 l-77 60 -3 142 -3 142 88 3 88 3 2 65 c1 36 2 68 2 73 1 4
241 6 533 5 l533 -3 -3 -43z"/>
<path d="M405 1555 c0 -25 3 -45 8 -45 4 0 10 0 14 0 4 0 8 10 8 23 0 22 1 22
205 28 286 9 645 10 664 3 9 -3 16 -17 16 -30 0 -16 6 -24 18 -24 14 0 18 9
19 45 l2 45 -477 0 -477 0 0 -45z"/>
<path d="M230 1353 l0 -98 60 -48 60 -48 0 46 0 45 145 0 c80 0 148 0 151 0 3
0 5 -82 4 -183 0 -101 2 -191 6 -200 5 -14 22 -17 105 -17 l99 0 0 300 0 300
-315 0 -315 0 0 -97z"/>
<path d="M900 1150 l0 -300 100 0 100 0 0 200 0 200 153 0 152 0 -4 -46 -3
-47 43 32 c24 17 52 38 63 46 16 12 19 29 20 114 l2 101 -313 0 -313 0 0 -300z"/>
<path d="M410 1193 c0 -10 -1 -89 -3 -176 -2 -145 -1 -157 16 -157 16 0 17 13
15 172 -2 126 -6 172 -15 176 -7 2 -13 -4 -13 -15z"/>
<path d="M1319 1208 c0 -2 -3 -81 -5 -175 -4 -167 -3 -173 16 -173 19 0 20 7
20 175 0 149 -2 175 -15 175 -8 0 -15 -1 -16 -2z"/>
<path d="M302 914 l-43 -54 46 0 45 0 0 55 c0 30 -1 55 -2 54 -2 0 -22 -25
-46 -55z"/>
<path d="M1400 918 l0 -58 46 0 45 0 -20 28 c-12 15 -32 41 -46 57 l-25 30 0
-57z"/>
<path d="M250 685 l0 -125 625 0 625 0 0 125 0 125 -625 0 -625 0 0 -125z
m861 47 l1 -37 15 38 c10 24 22 37 34 37 17 0 19 -9 19 -85 0 -78 -2 -85 -20
-85 -16 0 -20 7 -21 33 l-1 32 -14 -32 c-9 -22 -21 -33 -34 -33 -18 0 -20 7
-20 70 0 57 -3 68 -15 64 -10 -4 -15 -25 -17 -67 -3 -56 -5 -62 -25 -65 -22
-3 -23 0 -23 61 0 69 -8 81 -49 70 -28 -7 -27 -31 2 -35 l22 -3 -22 -20 c-28
-24 -29 -43 -3 -47 38 -6 26 -23 -17 -26 l-43 -3 0 69 c0 68 0 69 -25 64 -24
-4 -25 -8 -25 -69 0 -61 -1 -64 -22 -61 -20 3 -23 9 -23 46 1 23 -2 41 -5 39
-3 -1 -17 -9 -32 -16 -21 -11 -28 -22 -28 -43 0 -21 -5 -28 -20 -28 -21 0 -24
18 -21 125 1 32 -1 37 -9 23 -6 -10 -18 -18 -25 -18 -8 0 -15 -7 -15 -15 0 -8
5 -14 12 -13 20 5 21 -31 1 -40 -28 -11 -27 -32 2 -32 16 0 25 -6 25 -15 0
-11 -12 -15 -44 -15 l-45 0 -3 85 -3 85 81 0 c66 0 86 -4 107 -20 25 -20 25
-20 20 0 -5 19 1 20 153 22 88 2 162 2 167 0 4 -2 7 -20 8 -40z m-672 24 c7
-9 11 -41 9 -83 l-3 -68 -47 -3 c-48 -3 -48 -3 -48 28 0 18 6 33 15 36 8 4 15
12 15 19 0 7 -7 15 -15 19 -9 3 -15 18 -15 36 0 28 2 30 39 30 21 0 44 -6 50
-14z m73 -18 l1 -33 4 33 c4 27 8 33 26 30 20 -3 22 -9 25 -85 3 -83 3 -83
-23 -83 -22 0 -25 4 -27 38 l-1 37 -4 -37 c-4 -33 -8 -38 -29 -38 -24 0 -24 2
-24 85 0 84 0 85 25 85 21 0 25 -5 27 -32z m728 15 c1 -17 1 -17 11 0 10 17
49 24 49 9 0 -4 -7 -17 -15 -28 -15 -22 -9 -63 15 -101 9 -15 11 -13 7 14 -2
18 0 30 4 27 7 -4 25 72 21 89 -1 4 19 7 46 7 l47 0 -3 -85 c-3 -76 -5 -85
-23 -85 -10 0 -19 7 -19 15 0 8 -6 15 -14 15 -8 0 -16 -7 -20 -15 -3 -10 -19
-15 -45 -15 -37 0 -41 3 -50 33 l-9 32 -1 -33 c-1 -29 -4 -33 -23 -30 -21 3
-23 9 -26 72 -2 38 -1 75 2 83 8 20 46 16 46 -4z"/>
<path d="M721 704 c0 -11 3 -14 6 -6 3 7 2 16 -1 19 -3 4 -6 -2 -5 -13z"/>
<path d="M396 721 c-4 -7 -5 -15 -2 -18 9 -9 19 4 14 18 -4 11 -6 11 -12 0z"/>
<path d="M396 645 c4 -8 8 -15 10 -15 2 0 4 7 4 15 0 8 -4 15 -10 15 -5 0 -7
-7 -4 -15z"/>
<path d="M1360 680 c0 -11 5 -20 10 -20 6 0 10 9 10 20 0 11 -4 20 -10 20 -5
0 -10 -9 -10 -20z"/>
<path d="M660 482 c0 -20 9 -35 30 -50 16 -12 33 -22 39 -22 5 0 11 -3 13 -7
2 -5 23 -21 48 -38 25 -16 51 -33 58 -38 9 -7 12 12 12 87 l0 96 -100 0 -100
0 0 -28z"/>
<path d="M898 415 c-2 -52 -2 -95 -1 -95 1 0 44 29 95 64 80 55 93 68 96 95
l3 31 -95 0 -95 0 -3 -95z"/>
<path d="M436 492 c12 -11 156 -115 315 -229 l126 -90 109 79 c60 43 120 86
134 96 56 37 135 97 138 105 2 4 8 7 14 7 5 0 21 9 35 20 25 19 25 20 4 20
-12 0 -68 -32 -124 -72 -56 -39 -129 -90 -162 -112 -33 -23 -76 -53 -96 -69
-20 -15 -42 -27 -50 -27 -8 0 -104 63 -214 140 -110 77 -209 140 -219 140 -12
0 -16 -3 -10 -8z"/>
</g>
</svg>
